<svg id="Layer_1" data-name="Layer 1" xmlns="http://www.w3.org/2000/svg" viewBox="0 0 366.29 170.37"><defs><style>.cls-1,.cls-7{fill:#1aace3;}.cls-2{fill:#0082b3;}.cls-3{fill:#4dbfe9;}.cls-4{fill:#33b5e6;}.cls-5{fill:#0093ca;}.cls-6{fill:#00a3e0;}.cls-7{font-size:96.58px;font-family:Silom, Silom;}</style></defs><title>helix</title><path class="cls-1" d="M777,118.78c2.45-2.35,5-4.62,7.33-7.08,1.28-1.34,2.27-1.37,3.8-.42,13.7,8.52,22.4,20.46,25.08,36.33,3.63,21.48-5.8,41.8-24.42,53.48-2.12,1.33-3.49,1.25-5.24-.61-3.58-3.8-7.41-7.37-11.14-11-1.29-1.26-2-2.4-1-4.41,2.5-5.12,1.57-9.26-2.7-13.52-7.33-7.3-14.49-14.8-22.1-21.79-8.81-8.09-10.24-21.55-3.11-30a4,4,0,0,0,.44-.91c-.26-.59,0-.71.54-.63,2.77,1.68,4.57,4.39,7,6.47,1,.86.57,1.66,0,2.68-2.82,5.21-2.25,9.25,2,13.49,7.28,7.33,14.48,14.75,22,21.85,8,7.58,11.86,18.92,3.67,31,5.88-2.19,10-6,13.82-10.09,17.37-18.9,11.73-51.18-11.05-63.27-.89-.47-1.75-1.61-3-.77A1.44,1.44,0,0,1,777,118.78Z" transform="translate(-708.48 -69.51)"/><path class="cls-2" d="M744.54,118.19l-.54.63c-7.64,3-13.17,8.53-17.94,14.93a2.3,2.3,0,0,1-1.32.22c-3.18-.92-5.63-3-8.2-4.94,4.39-7.88,10.93-13.6,18.63-18.14,1-.57,1.75-.73,2.65.25C740,113.54,742.29,115.84,744.54,118.19Z" transform="translate(-708.48 -69.51)"/><path class="cls-3" d="M740.64,198.59c-3.81,4.38-3.88,4.48-8.38,1.4-10.26-7-17.76-16.09-21.15-28.18.93-.75,1.8-.22,2.48.32,2.93,2.32,6.15,4.3,8.69,7.09,4.28,4.7,9.36,8.54,14.3,12.47C739,193.62,740.51,195.57,740.64,198.59Z" transform="translate(-708.48 -69.51)"/><path class="cls-2" d="M777,118.78l1.83.72c5.9,8.46,6.57,17,.63,25.79-2.85.44-8-3.92-8.11-6.86,1.56-3.88,1.78-7.72-.71-11.31-.85-1.24-.16-1.81.58-2.55C773.2,122.65,775.12,120.71,777,118.78Z" transform="translate(-708.48 -69.51)"/><path class="cls-4" d="M740.64,198.59c-1.11-3.09-3.27-5.13-5.88-7.21-6.7-5.35-12.94-11.27-19.38-16.94a10,10,0,0,0-4.27-2.62c-2.07-6.23-3.34-12.56-2.21-19.15a1.43,1.43,0,0,1,.73,1.07c.27,7.33,6.73,9.77,11.13,13.84,1.14,2.66,2.11,5.41,3.47,8,4.21,7.9,9.75,14.53,18.37,18.05.43.54,1.75.1,1.52,1.37C743.39,196.57,741.77,197.35,740.64,198.59Z" transform="translate(-708.48 -69.51)"/><path class="cls-5" d="M771.39,138.44c2.16,2.91,4.64,5.47,8.11,6.86-2,3.78-5.7,6-8.46,9.13-.61.68-1.17.47-1.72-.07-.16-.16-.32-.32-.49-.47-6.75-5.87-6.75-5.87-.4-12.23C769.46,140.62,770.4,139.51,771.39,138.44Z" transform="translate(-708.48 -69.51)"/><path class="cls-5" d="M716.53,129c3.92.11,5.8,4.22,9.52,4.72-1.56,3.43-3.89,6.51-4.84,10.22-.94,2-2.41,2.19-4,.93-2.43-1.88-5.11-3.66-4.88-7.31A23.71,23.71,0,0,1,716.53,129Z" transform="translate(-708.48 -69.51)"/><path class="cls-1" d="M720.77,167.57c-1.33,1.59-1.89-.08-2.64-.65-2.64-2-4.2-5.2-7.74-6.3-1.47-.45-.5-2.42-.8-3.68-.33-1.41-.46-2.86-.68-4.29,0-1.84-.24-3.72.67-5.45,4.67,1.47,7.45,4.94,9.69,9C719.47,160,719.46,163.88,720.77,167.57Z" transform="translate(-708.48 -69.51)"/><path class="cls-6" d="M745.31,165c.49-.61.94-1.26,1.48-1.81,6.25-6.3,6.23-6.28,12.07.72.93,1.11,1,1.81-.09,2.77-1.7,1.48-3.32,3.05-5,4.58-.53.19-.81.85-1.38.89C750.32,172.31,745.39,167.32,745.31,165Z" transform="translate(-708.48 -69.51)"/><path class="cls-4" d="M750.2,177.26c-.18,2.8-.09,5.53,1.45,8s-.94,3.18-2.14,4.43a94.43,94.43,0,0,1-10.19-8.37,13.48,13.48,0,0,1,1.17-8.27,10.18,10.18,0,0,1,4.94,2.86C746.83,177.4,748.28,178,750.2,177.26Z" transform="translate(-708.48 -69.51)"/><path class="cls-6" d="M719.26,156.19c-.22,0-.55,0-.64-.15-2.39-3.58-5.7-6.23-9.05-8.83a25,25,0,0,1,2.72-9.62,15.08,15.08,0,0,0,5.12,6.55c1.52,1.13,2.58,1,3.8-.17A76.1,76.1,0,0,0,719.26,156.19Z" transform="translate(-708.48 -69.51)"/><path class="cls-1" d="M750.2,177.26c-.94,2-2.36,2.4-3.74.65-1.65-2.09-4.41-2.71-6-4.82a14.1,14.1,0,0,1,4.83-8.12c2.49,2.54,4,6.44,8.5,6.27C752.54,173.21,751,175,750.2,177.26Z" transform="translate(-708.48 -69.51)"/><path class="cls-3" d="M739.31,181.36a26.79,26.79,0,0,1,10.19,8.37,30.54,30.54,0,0,1-5.39,5.23l-1.52-1.37c2-.46.4-1.29.1-1.78A20.37,20.37,0,0,1,739.31,181.36Z" transform="translate(-708.48 -69.51)"/><text class="cls-7" transform="translate(108.71 122.46)">Helix</text></svg>