<svg width="13" height="17" viewBox="0 0 13 17" fill="none" xmlns="http://www.w3.org/2000/svg">
<path d="M10.7606 9.16699H3.75936C3.67763 9.16699 3.59924 9.1979 3.54144 9.25291C3.48364 9.30793 3.45117 9.38254 3.45117 9.46035C3.45117 9.53815 3.48364 9.61276 3.54144 9.66778C3.59924 9.72279 3.67763 9.7537 3.75936 9.7537H10.7606C10.8424 9.7537 10.9208 9.72279 10.9786 9.66778C11.0364 9.61276 11.0688 9.53815 11.0688 9.46035C11.0688 9.38254 11.0364 9.30793 10.9786 9.25291C10.9208 9.1979 10.8424 9.16699 10.7606 9.16699Z" fill="#126BD6"/>
<path d="M10.761 7.46045H3.7597C3.67425 7.46045 3.59229 7.49276 3.53187 7.55028C3.47145 7.60779 3.4375 7.6858 3.4375 7.76714C3.4375 7.84848 3.47145 7.92648 3.53187 7.984C3.59229 8.04151 3.67425 8.07383 3.7597 8.07383H10.761C10.8464 8.07383 10.9284 8.04151 10.9888 7.984C11.0492 7.92648 11.0832 7.84848 11.0832 7.76714C11.0832 7.6858 11.0492 7.60779 10.9888 7.55028C10.9284 7.49276 10.8464 7.46045 10.761 7.46045Z" fill="#126BD6"/>
<path d="M1.66112 3.51611C1.60508 3.51611 1.5412 3.51771 1.51318 3.52038V4.05055C1.55446 4.05719 1.59628 4.06031 1.63814 4.05989C2.03039 4.05989 2.07521 3.90841 2.07521 3.7764C2.07521 3.69853 2.07914 3.51611 1.66112 3.51611Z" fill="#126BD6"/>
<path d="M3.44909 3.51611C3.39053 3.51611 3.30592 3.52118 3.19385 3.53105V4.79967C3.30592 4.80314 3.33842 4.80474 3.42835 4.80474C3.66034 4.80474 3.81836 4.7306 3.92034 4.57832C3.99739 4.46151 4.03885 4.30817 4.03885 4.12309C4.03885 3.70893 3.8531 3.51611 3.44909 3.51611Z" fill="#126BD6"/>
<path d="M7.11644 3.08172C7.11644 2.88509 7.03438 2.69652 6.88831 2.55748C6.74224 2.41844 6.54413 2.34033 6.33755 2.34033H0.778886C0.572313 2.34033 0.3742 2.41844 0.22813 2.55748C0.082061 2.69652 0 2.88509 0 3.08172L0 5.22587C0 5.4225 0.082061 5.61107 0.22813 5.75011C0.3742 5.88915 0.572313 5.96726 0.778886 5.96726H6.33755C6.54413 5.96726 6.74224 5.88915 6.88831 5.75011C7.03438 5.61107 7.11644 5.4225 7.11644 5.22587V3.08172ZM2.27082 4.2818C2.09991 4.40635 1.88025 4.46848 1.60708 4.46848C1.57567 4.46906 1.54425 4.46808 1.51294 4.46555V5.22054H1.03665V3.16892L1.1179 3.15532C1.29627 3.12518 1.47693 3.10895 1.65807 3.10679C1.92368 3.10679 2.13605 3.16626 2.29211 3.2836C2.37032 3.33928 2.43354 3.41182 2.4766 3.49526C2.51965 3.57871 2.5413 3.67068 2.53978 3.76363C2.5424 3.86436 2.5193 3.96418 2.47245 4.05453C2.4256 4.14488 2.35641 4.22305 2.27082 4.28234V4.2818ZM4.27519 4.86611C4.07907 5.09733 3.78208 5.2144 3.38395 5.2144C3.26656 5.2144 3.08613 5.20133 2.8236 5.1744L2.74571 5.16533V3.16839L2.8222 3.15852C3.14412 3.12359 3.33828 3.10679 3.45343 3.10679C3.82102 3.10679 4.10316 3.21586 4.28583 3.43081C4.43293 3.60309 4.50997 3.83617 4.50997 4.12419C4.51081 4.42875 4.43293 4.67863 4.27519 4.86664V4.86611ZM6.10781 3.54042H5.18323V3.91378H6.05178V4.36714H5.18323V5.22054H4.67892V3.11372H6.10781V3.54042Z" fill="#126BD6"/>
<path d="M7.90098 0.5H2.31037C1.87723 0.5 1.54102 0.843491 1.54102 1.25499V1.99344H2.18542V1.61021C2.18542 1.33713 2.39667 1.11338 2.68357 1.11338H7.90098V4.60696C7.90038 4.80384 7.98172 4.99293 8.12722 5.13286C8.27271 5.2728 8.47051 5.3522 8.67734 5.35368H12.3558V13.9503C12.3542 14.0824 12.2981 14.2087 12.1995 14.3018C12.101 14.3948 11.9679 14.4472 11.829 14.4476H9.49545C9.47744 14.4755 9.4576 14.5022 9.43606 14.5277L9.02168 15.0344H12.2022C12.6342 15.0344 13.0002 14.717 13.0002 14.3055V5.35208L7.90098 0.5Z" fill="#126BD6"/>
<path d="M5.03177 14.4476H2.68362C2.39673 14.4476 2.18547 14.2233 2.18547 13.9502V6.34033H1.54107V14.3054C1.53982 14.4018 1.55889 14.4974 1.59716 14.5866C1.63543 14.6758 1.69211 14.7567 1.76385 14.8247C1.83559 14.8927 1.92093 14.9462 2.01482 14.9822C2.10871 15.0182 2.20923 15.0359 2.31043 15.0343H5.5061L5.09144 14.5294C5.06973 14.5034 5.0498 14.4761 5.03177 14.4476Z" fill="#126BD6"/>
<path d="M8.96931 13.9946H8.12543V11.28C8.12543 11.0976 7.97666 10.9277 7.78502 10.9277H6.74333C6.55169 10.9277 6.38835 11.0976 6.38835 11.28V13.9946H5.55903C5.39092 13.9946 5.29566 14.1834 5.39457 14.3058L7.09971 16.4228C7.11907 16.4466 7.14382 16.4659 7.17212 16.4793C7.20042 16.4928 7.23154 16.4999 7.26316 16.5003C7.29477 16.5007 7.32607 16.4943 7.35473 16.4816C7.38338 16.4688 7.40864 16.4501 7.42863 16.4268L9.13406 14.3037C9.23268 14.1813 9.1363 13.9946 8.96931 13.9946Z" fill="#126BD6"/>
</svg>
