<svg width="12" height="12" viewBox="0 0 12 12" fill="none" xmlns="http://www.w3.org/2000/svg">
<path fill-rule="evenodd" clip-rule="evenodd" d="M6 12C9.28235 12 12 9.28235 12 6C12 2.72353 9.27647 0 5.99412 0C2.71765 0 0 2.72353 0 6C0 9.28235 2.72353 12 6 12ZM5.94706 3.90588C5.52353 3.90588 5.18235 3.56471 5.18235 3.14118C5.18235 2.71176 5.52353 2.37059 5.94706 2.37059C6.37647 2.37059 6.71176 2.71176 6.71176 3.14118C6.71176 3.56471 6.37647 3.90588 5.94706 3.90588ZM7.36471 9.23529H4.97059C4.72941 9.23529 4.54118 9.06471 4.54118 8.82353C4.54118 8.59412 4.72941 8.41176 4.97059 8.41176H5.7V5.71176H5.07059C4.82941 5.71176 4.64118 5.54118 4.64118 5.3C4.64118 5.07059 4.82941 4.88824 5.07059 4.88824H6.17647C6.47647 4.88824 6.63529 5.1 6.63529 5.41765V8.41176H7.36471C7.60588 8.41176 7.79412 8.59412 7.79412 8.82353C7.79412 9.06471 7.60588 9.23529 7.36471 9.23529Z" fill="black"/>
</svg>
