<svg xmlns="http://www.w3.org/2000/svg" fill="none" viewBox="0 0 16 16"><path fill="#393939" fill-rule="evenodd" d="m3.8553 8 1.0273.9483c-.2816.382-.4465.8431-.4465 1.3392 0 1.3161 1.16 2.3869 2.5859 2.3869.4884 0 .9456-.1258 1.3357-.344l.115-.0682 1.0273.9483C8.817 13.7046 7.9571 14 7.022 14 4.8007 14 3 12.3379 3 10.2875c0-.8124.2835-1.5633.7631-2.1745L3.8553 8ZM6.307 2.6849c.2324-.1936.5636-.2382.8426-.1194l.091.0453 3.5563 1.9299c.1844.1076.3045.276.348.4612.075.2456.0314.5178-.1374.7357l-.0544.0637L9.456 7.3936l2.7205-.1414c.2247-.0115.4447.0681.6021.219.1399.134.2185.3125.2213.4979l-.0025.0698-.3288 3.7674c-.0332.3809-.3746.6694-.7768.6694a.8137.8137 0 0 1-.0642-.0024c-.4057-.0309-.7135-.3462-.7169-.719l.0026-.0664.2561-2.9343-1.053.0548c.2601.4948.4064 1.0513.4064 1.6398 0 .9358-.37 1.7903-.98 2.4446L9.6389 13l-1.0083-.9416c.4145-.4257.6674-.9909.6674-1.6102 0-1.321-1.1508-2.3957-2.5654-2.3957-.619 0-1.1875.2058-1.6311.5479l-.0932.0753L4 7.7341c.5278-.4636 1.1906-.7947 1.9276-.936l.159-.0273 1.931-2.0536-1.094-.5932-1.3232 1.1022c-.3215.268-.8148.2416-1.1016-.0587-.27-.2826-.261-.7072.0092-.9795l.0537-.0492 1.7453-1.454ZM11.2501 2c.6903 0 1.2499.5597 1.2499 1.25 0 .6904-.5596 1.25-1.2499 1.25C10.5596 4.5 10 3.9404 10 3.25c0-.6903.5596-1.25 1.2501-1.25Z" clip-rule="evenodd" /></svg>