<svg xmlns="http://www.w3.org/2000/svg" fill="none" viewBox="0 0 16 16"><path fill="#393939" fill-rule="evenodd" d="M9.5088 13.7747c3.2194 0 5.8815-2.668 5.8815-5.8873C15.3903 4.6738 12.7223 2 9.5029 2c-2.9763 0-5.4723 2.2826-5.834 5.1581.1542 0 .3024.0119.4506.0356.1838.0237.3676.0652.5455.1185.2786-2.4249 2.33-4.3043 4.8379-4.3043 2.7095 0 4.8794 2.1759 4.8854 4.8795 0 1.2628-.4684 2.4011-1.2392 3.2668-.8952-.7471-2.2351-1.2451-3.6462-1.2451-.664 0-1.417.1423-2.1166.3913.0415.2253.0652.4565.0652.6877 0 .7767-.243 1.506-.6522 2.1166.8123.421 1.7372.67 2.7095.67ZM9.503 8.8893c1.1383 0 1.998-.9842 1.998-2.2233 0-1.168-.8774-2.1818-1.998-2.1818-1.1146 0-1.998 1.0138-1.998 2.1818 0 1.2391.8656 2.2233 1.998 2.2233ZM3.6215 14c1.6363 0 3.0118-1.3636 3.0118-3.0119 0-1.6482-1.3577-3.0118-3.0118-3.0118-1.6482 0-3.0119 1.3636-3.0119 3.0118C.6096 12.6482 1.9733 14 3.6215 14Zm.006-1.0553c-.2076 0-.3914-.1423-.3914-.3676v-1.2273H2.1037c-.2016 0-.3676-.166-.3676-.3617 0-.2015.166-.3675.3676-.3675H3.236V9.3933c0-.2194.1838-.3617.3913-.3617.2016 0 .3854.1423.3854.3617v1.2273h1.1324c.2016 0 .3617.166.3617.3675 0 .1957-.1601.3617-.3617.3617H4.0128v1.2273c0 .2253-.1838.3676-.3854.3676Z" clip-rule="evenodd" /></svg>