<svg xmlns="http://www.w3.org/2000/svg" fill="none" viewBox="0 0 16 16"><path fill="#393939" fill-rule="evenodd" d="M4.0915 11.2965c0-.1998-.225-.2994-.3744-.1998l-1.6235 1.224c-.1248.0996-.1248.2994 0 .3744l1.6235 1.2239c.1494.1248.3744 0 .3744-.1998v-.5496h4.0456a1.343 1.343 0 0 0 1.3487-1.3487H4.0915v-.5244Zm9.8149-7.9916L12.2828 2.081c-.1499-.1248-.3743 0-.3743.1998v.5496H7.8623A1.343 1.343 0 0 0 6.514 4.179h5.3944v.5244c0 .1997.2244.2994.3743.1997l1.6236-1.2239c.1248-.0996.1248-.2748 0-.3744ZM9.1366 6.7014h.699v-.5742h-.699v.5742ZM10.21 6.027v.7494c0 .1746-.1499.2994-.2993.2994H9.061c-.1746 0-.2994-.1248-.2994-.2994V6.027c0-.1746.1248-.2994.2994-.2994h.8496c.1746 0 .2993.1248.2993.2994Zm.5994-.7242c0-.1248-.0996-.1998-.1998-.1998H3.9919c-.075 0-.15.075-.1752.1998v2.6225h6.9927V5.3028Zm-.0247 3.496H3.7921v.4998c0 .1248.0996.1998.1998.1998h6.6428c.075 0 .1746-.1002.15-.1998V8.799Zm1.7478-2.1472v3.9958c0 .3246-.2496.5993-.5993.5993H5.3155c-.3246 0-.5994-.2496-.5994-.5993v-.7746H3.992c-.3252 0-.5748-.2742-.5748-.5742V5.3028c0-.3246.2748-.5741.5748-.5741h6.6176c.3246 0 .5748.2742.5748.5741v.7242h.774c.3497 0 .5993.2748.5741.6246ZM6.639 6.6264h-.1248c-.1248 0-.1998.075-.1998.1998 0 .1248.075.1997.1998.1997h.1248c.0996 0 .1998-.075.1998-.1997 0-.1248-.075-.1998-.1998-.1998Zm-.8994 0h-.999c-.1247 0-.1997.075-.1997.1998 0 .1248.075.1997.1998.1997h.999c.1247 0 .1997-.075.1997-.1997 0-.1248-.075-.1998-.1998-.1998Zm1.0991-.6744c0 .1248-.1001.1998-.1997.1998H4.7407c-.1248 0-.1998-.075-.1998-.1998 0-.1248.075-.1998.1998-.1998h1.8982c.1249 0 .1998.075.1998.1998Z" clip-rule="evenodd" /></svg>