<svg xmlns="http://www.w3.org/2000/svg" fill="none" viewBox="0 0 16 16"><path fill="#393939" fill-rule="evenodd" d="M13.4246 2a.576.576 0 0 1 .572.5128L14 2.5754v2.1863a.5755.5755 0 0 1-.5127.5715l-.0627.0034h-.308l.5508 2.1783a.5603.5603 0 0 1-.1034.4857c-.094.121-.2304.1952-.3817.2164l-.0657.0059.5508 2.1782a.5612.5612 0 0 1-.1034.4858c-.094.1205-.2304.1946-.3817.2162l-.0657.006.5508 2.1806a.5572.5572 0 0 1-.1023.4834.5877.5877 0 0 1-.4006.2231L13.0954 14h-10.22c-.1771 0-.3434-.076-.4554-.2091a.5667.5667 0 0 1-.1334-.3873l.0071-.0699.3812-2.2634c-.096-.0349-.1863-.0857-.2538-.1657a.5693.5693 0 0 1-.1345-.3887l.0071-.0702.3812-2.2617c-.0966-.0349-.1863-.0857-.2538-.1657a.5694.5694 0 0 1-.1345-.3887l.0071-.0702.3749-2.2228h-.0937a.5754.5754 0 0 1-.5715-.5123L2 4.7617V2.5754a.576.576 0 0 1 .5123-.572L2.5749 2h10.8497Zm-.896 9.1143h-6.484v2.3148l7.0508-.0005.0115-.0018.0074-.0051-.5857-2.3074Zm-8.8897 0h-.3743l-.4069 2.3148H5.143v-2.3148H4.541v2.3063H3.639v-2.3063ZM10.857 8.228H6.0446v2.3091h6.4651l.0332.0058h.5497a.0276.0276 0 0 0 .0195-.0064l.0022-.0022-.5846-2.3046-.7708-.0006v.5789a.2835.2835 0 0 1-.2375.2797l-.046.0037h-.3348a.2834.2834 0 0 1-.2797-.2374l-.0038-.046v-.58Zm-7.2182 0h-.3726l-.4086 2.312h.3909l.0171-.0029h.3732V8.228Zm1.504 0H4.541v2.3091h.6018V8.228Zm6.616-2.8851v2.308h.7491l.0331.0057h.552l.0126-.0021.0086-.006-.5846-2.305-.7708-.0006Zm-8.4915-.0063-.4097 2.3177h.3909l.0188-.0034h.3715V5.337l-.3715-.0005Zm2.7772.0023v2.312h4.8125V5.3423l-4.8125-.0034ZM4.541 5.3377V7.651h.6018V5.3383l-.6018-.0006ZM2.575 2.5714l-.0035 2.1903 8.2857.0029v-.8629H3.4703a.2829.2829 0 0 1-.2792-.2365l-.0037-.0458v-.012a.2826.2826 0 0 1 .237-.2786l.0459-.0037h7.6423l.028-.0057h.3348l.028.0057h1.0257a.283.283 0 0 1 .2792.2365l.0037.0458v.012a.2826.2826 0 0 1-.237.2786l-.0459.0037h-.7702v.8629l1.6657.0005.003-.001.001-.0024V2.5754l-10.8537-.004Z" clip-rule="evenodd" /></svg>