<svg xmlns="http://www.w3.org/2000/svg" fill="none" viewBox="0 0 16 16"><path fill="#393939" fill-rule="evenodd" d="M8.0006 2.9081c-.1091-.0739-.2446-.1157-.3968-.1157H2.6793c-.3963 0-.6793.283-.6793.6793v1.6981c0 .139.0348.264.0971.368C2.0348 5.6416 2 5.7667 2 5.9057v1.698c0 .1523.0418.2878.1155.396C2.0417 8.1086 2 8.244 2 8.3961v1.6981c0 .139.0348.2641.0971.3681-.0623.1038-.0971.2288-.0971.3678v1.6981c0 .3962.283.6792.6793.6792h1.981c.1523 0 .2878-.0417.396-.1154.109.0738.2444.1154.3965.1154h4.9246a.6158.6158 0 0 0 .3485-.1092c.1075.0699.2395.1092.3873.1092h2.2076c.3962 0 .6792-.283.6792-.6792v-1.6981c0-.1447-.0378-.2744-.1049-.3804.0672-.1075.1049-.2315.1049-.3555v-1.698c0-.1522-.0417-.2875-.1157-.3957.0739-.1091.1157-.2446.1157-.3968V5.9057c0-.139-.0348-.264-.0971-.368.0623-.1039.0971-.229.0971-.3679V3.4717c0-.3962-.283-.6792-.6792-.6792H8.3962c-.152 0-.2873.0416-.3956.1156ZM2.8491 11h1.6415v1.3585H2.849V11Zm8.4339 0h1.8679v1.3585H11.283V11Zm-5.717 0h4.5849v1.3585H5.566V11ZM2.849 8.566h4.585v1.3585H2.849V8.566Zm5.717 0h4.5849v1.3585H8.566V8.566ZM2.849 6.0755h1.6416V7.434H2.849V6.0755Zm8.434 0h1.8679V7.434H11.283V6.0755Zm-5.717 0h4.5849V7.434H5.566V6.0755Zm-2.717-2.434h4.585V5H2.849V3.6415Zm5.717 0h4.5849V5H8.566V3.6415Z" clip-rule="evenodd" /></svg>