<svg xmlns="http://www.w3.org/2000/svg" fill="none" viewBox="0 0 16 16"><path fill="#393939" fill-rule="evenodd" d="M4.7512 10.1366c-.1756 0-.2927-.1756-.2927-.2927 0-.1756.1756-.2927.2927-.2927h2.283v-.0585l.5268-1.4049 4.0975-4.0976c.1171-.117.2927-.1756.4683-.1756.1756 0 .3512.0586.5269.2342l.5853.5854c.1171.117.2342.2926.2342.4682.0585.1757-.0586.3513-.1756.4683l-4.039 4.039-1.522.5269H4.7512Zm3.1025-.8195.2926-.9366 3.2196-3.044.5268.527-3.1025 3.1023-.9366.3513Zm4.4488-3.922.3512-.3512-.5854-.5854-.4097.3513.6439.5853Z" clip-rule="evenodd" /><path fill="#393939" fill-rule="evenodd" d="M2 11.6854a.5.5 0 0 0 .5.5h11a.5.5 0 0 0 .5-.5V6.5976a.5.5 0 0 0-.5-.5h-.261c-.2341 0-.4097.1756-.4097.4097 0 .0514.0084.1.0241.1444.0373.106.1081.2068.179.3076.1032.1469.2066.294.2066.4578v3.4488a.5.5 0 0 1-.5.5H3.3195a.5.5 0 0 1-.5-.5V7.4171a.5.5 0 0 1 .5-.5h4.7098c.1756 0 .4097-.1756.4097-.4098 0-.2341-.1756-.4097-.4097-.4097H2.5a.5.5 0 0 0-.5.5v5.0878Z" /><path fill="#393939" fill-rule="evenodd" d="M3.1707 8.4976c0 .117.1171.2926.2927.2926h1.3464c.117 0 .2926-.117.2926-.2926 0-.1171-.117-.2927-.2927-.2927H3.4634c-.117 0-.2927.117-.2927.2927ZM11.3073 10.9561c-.1756 0-.2927-.1756-.2927-.2927 0-.1756.1757-.2927.2927-.2927h1.1708c.1756 0 .2926.1171.2926.2927 0 .1756-.1756.2927-.2926.2927h-1.1708ZM9.844 9.7268c0 .1171.117.2927.2926.2927h2.4c.1171 0 .2927-.117.2927-.2927 0-.117-.1171-.2927-.2927-.2927h-2.4c-.1171 0-.2927.1171-.2927.2927ZM3.4634 10.1366c-.1756 0-.2927-.1756-.2927-.2927 0-.1756.1756-.2927.2927-.2927h.117c.1757 0 .2928.1756.2928.2927 0 .1756-.1757.2927-.2927.2927h-.117ZM9.844 10.6634c0 .1171.117.2927.2926.2927h.1171c.1171 0 .2927-.1171.2927-.2927 0-.1171-.1171-.2927-.2927-.2927h-.1171c-.1171 0-.2927.1171-.2927.2927ZM3.4634 7.7951c-.1756 0-.2927-.117-.2927-.2927 0-.1756.1756-.2926.2927-.2926h.644c.1755 0 .2926.117.2926.2926 0 .1757-.1756.2927-.2927.2927h-.6439Z" /></svg>