<svg xmlns="http://www.w3.org/2000/svg" fill="none" viewBox="0 0 16 16"><path fill="#393939" fill-rule="evenodd" d="M6.9776 11.6033a2.731 2.731 0 0 0 .1416-.8686c0-1.5303-1.2605-2.7963-2.7963-2.7963-.4548 0-.8864.1119-1.2682.3093V4.2323c.2515-.5192 1.3862-1.29 2.719-1.29 1.0597 0 2.0873.5246 2.4352 1.1722v8.0926c-.0589-.0053-.3372-.1659-.4282-.2194-.1546-.1105-.4245-.2711-.8031-.3844ZM13.5344 12.2767c.2569 0 .4656-.1338.4656-.4871V4.2323c-.2516-.5192-1.3862-1.29-2.7189-1.29-1.0598 0-2.0874.5246-2.43 1.1722v8.1033c.059-.0053.3319-.1713.4282-.2301.2623-.1874.8564-.5192 1.7449-.5192.9955 0 1.7287.3479 2.0552.6316.1231.1017.2569.1766.455.1766ZM4.1362 11.1733a.6359.6359 0 0 1-.6354-.6355c0-.3494.2848-.6354.6354-.6354.3507 0 .6355.286.6355.6354a.6359.6359 0 0 1-.6355.6355Z" /><path fill="#393939" fill-rule="evenodd" d="M4.323 13.0576c1.262 0 2.3228-1.0517 2.3228-2.3229s-1.0471-2.323-2.3229-2.323C3.0517 8.4118 2 9.4636 2 10.7348c0 1.2803 1.0517 2.3229 2.323 2.3229Zm.9226-1.1459c.14 0 .2441-.1077.2441-.2454 0-.0634-.0215-.1256-.0694-.1735l-.4476-.4476a.9674.9674 0 0 0 .1436-.5074c0-.5373-.4415-.98-.98-.98-.5386 0-.9802.4427-.9802.98 0 .5386.4416.9801.9801.9801a.9737.9737 0 0 0 .4823-.128l.4512.4524c.0466.0466.1113.0694.1759.0694Z" clip-rule="evenodd" /></svg>