<svg xmlns="http://www.w3.org/2000/svg" fill="none" viewBox="0 0 16 16"><path fill="#393939" fill-rule="evenodd" d="M11.9126 4.8301h-2.254c-.1188.0267-.31.1035-.3148.3639-.005.2604.192.3875.3147.3977h2.2541c.1146.0082.3453-.0931.3453-.3977 0-.3047-.2307-.3557-.3453-.3639ZM11.8858 9.906c.1147.0083.3454.0593.3454.3639s-.2307.4059-.3454.3978h-2.254c-.1229-.0103-.3197-.1374-.3148-.3978.005-.2604.196-.3372.3148-.3638h2.254ZM11.8858 10.9939h-2.254c-.1188.0266-.3099.1034-.3148.3638-.0049.2604.192.3875.3148.3978h2.254c.1147.0082.3454-.0931.3454-.3978 0-.3046-.2307-.3556-.3454-.3638ZM4.8925 4.8301V4.173c0-.2764.205-.4423.3624-.4423.1904 0 .4053.1045.4053.4423V4.83h.7432c.1146.0082.3453.0592.3453.3639 0 .3046-.2307.4059-.3453.3977h-.7432v.7309c-.0143.1167-.0783.3526-.3682.3526-.29 0-.3995-.236-.3995-.3526v-.7309h-.7431c-.1229-.0102-.3197-.1373-.3148-.3977.0049-.2604.196-.3373.3148-.3639h.7431ZM4.6406 10.8779l-.4647-.4647c-.1954-.1954-.1677-.4576-.0564-.5689.1346-.1346.3604-.2128.5993.026l.4647.4648.5255-.5255c.0868-.0753.286-.2023.5014.013.2154.2155.124.4502.0371.5255l-.5255.5255.5168.5168c.0724.0926.194.3047-.011.5097-.205.205-.4493.1157-.5319.0332l-.5168-.5168-.5255.5254c-.094.0797-.3231.129-.5038-.0586-.1806-.1876-.0998-.3771-.0347-.4799l.5255-.5255Z" /><path fill="#393939" fill-rule="evenodd" d="M2.552 2h10.896c.312 0 .552.24.552.552v10.896c0 .312-.24.552-.552.552H2.552C2.24 14 2 13.76 2 13.448V2.552C2 2.24 2.24 2 2.552 2ZM13 3H8.5v4.5H13V3ZM8.5 8.5H13V13H8.5V8.5ZM7.5 3H3v4.5h4.5V3ZM3 8.5h4.5V13H3V8.5Z" clip-rule="evenodd" /></svg>