<svg xmlns="http://www.w3.org/2000/svg" fill="none" viewBox="0 0 16 16"><path fill="#393939" fill-rule="evenodd" d="M6.0493 9.8606c0 .2218.0697.6122.1391.8292l.0259.0726h3.572c.0677-.1683.1449-.5528.1612-.8113l.0031-.0905h.6l-.0045.1008-.0079.1086-.0135.1366-.0206.1566c-.0617.4096-.2033.9304-.5266.9939l-.067.0064h-.3373l.2244 2.2562c.021.1605-.096.3066-.2598.3264-.165.0198-.315-.0932-.3354-.2537l-.0023-.0366.0023-.0361.2106-2.1161-.1998.321a.2983.2983 0 0 1-.2024.1358l-.0508.0043H7.0405a.2979.2979 0 0 1-.222-.0994l-.0306-.0407-.2874-.4611h-.012l.198 1.5444c.0204.1605-.096.3072-.261.3264-.1644.0205-.3144-.0931-.3348-.2536l-.0023-.0369.0023-.0359.198-1.5444h-.1986c-.3943 0-.547-.636-.6054-1.0806l-.017-.1476-.0105-.1236-.008-.151h.6001ZM2.0028 8.3698c-.0273-.2177.1518-.3955.348-.363l.0456.0113 4.1035.865v.6445l-3.9361.8771c-.1496.02-.2875-.0788-.3298-.2271l-.0104-.0512-.2208-1.7566Zm11.6007-.3517c.1984-.0659.3936.0917.3965.3022l-.0028.0495-.2202 1.7566c-.02.1585-.145.2751-.2909.2807l-.0494-.0024L9.5 9.5277v-.6445l4.1035-.865Zm-3.3607-5.9665c.104 0 .1758.094.1534.186l-.013.034-.4656.8928a.158.158 0 0 1-.1064.0797l-.0352.0038H9.2V7.456a.3003.3003 0 0 1 .2025.0784l.0375.0413.1398.187h.3306c.3976 0 .6139.4808.638.7308l.0022.044h-.3l-.2994.009c-.0048-.036-.0338-.104-.0636-.1517l-.0222-.031H6.1351c-.0288.0341-.0626.1017-.0777.1502l-.0075.032-.6-.0085c0-.2184.193-.712.5678-.7694l.0724-.0055h.3306l.1398-.187a.2989.2989 0 0 1 .1832-.1143L6.8 7.456V3.248h-.576a.1608.1608 0 0 1-.1217-.0553l-.0193-.0283-.4656-.8927c-.047-.0898.008-.1938.103-.2158l.0374-.0043h4.4851ZM8.6 3.8491H7.4v3.0058h1.2V3.849Z" clip-rule="evenodd" /></svg>