<svg xmlns="http://www.w3.org/2000/svg" fill="none" viewBox="0 0 16 16"><path fill="#393939" fill-rule="evenodd" d="m5.0395 10.6945-.2198-.3133-.2198.3133c-.0957.136-.9324 1.3462-.9324 1.9905 0 .7249.517 1.315 1.1522 1.315.6352 0 1.1516-.5901 1.1516-1.315 0-.6443-.8362-1.8545-.9318-1.9905Zm-.8346 1.9905c0-.2843.3208-.884.6148-1.3499.2934.4659.6142 1.0656.6142 1.3499 0 .4288-.2757.7776-.6142.7776-.3386 0-.6148-.3488-.6148-.7776ZM10.1695 2.582A.5824.5824 0 0 0 9.5875 2H7.799a.5828.5828 0 0 0-.582.582v.08c0 .3209.2612.582.582.582h.0597v.5342h-.0113c-.4439 0-.8104.3262-.8792.7513h-.6067c-1.5616 0-2.832 1.2704-2.832 2.832v1.357c-.1467.151-.2633.3723-.3472.6604a.459.459 0 0 0 .0742.4073.4706.4706 0 0 0 .3746.187h2.5778a.4626.4626 0 0 0 .36-.1703.469.469 0 0 0 .0968-.3923c-.0403-.1994-.1333-.4692-.3482-.6873v-1.472a.0688.0688 0 0 1 .0688-.0682h4.6516c.1053.5675.6024.9996 1.2005.9996h.0607v.6593a.2688.2688 0 0 0 .5374 0V2.9678a.2688.2688 0 0 0-.5374 0v.6594h-.0607c-.5626 0-1.0328.3837-1.1752.9023h-.6428c-.0687-.425-.4352-.7513-.8791-.7513h-.0108v-.5341h.057a.5825.5825 0 0 0 .582-.582V2.582ZM4.0669 7.3615c0-1.2655 1.029-2.2946 2.2946-2.2946h4.6511v1.5788H6.3863c-.3343 0-.6062.272-.6062.6057v1.322H5.11a.2688.2688 0 0 0 0 .5374h.8205a.7964.7964 0 0 1 .1887.325H3.7283c.0635-.1832.1451-.3192.229-.3804l.1096-.0806V7.3615Zm7.4858-2.5112a.6862.6862 0 0 1 .6857-.6857h.0607v3.4807h-.0607a.6862.6862 0 0 1-.6857-.6857V4.8503Zm-4.0315-.3208a.3563.3563 0 0 1 .3262-.2139h1.6939a.357.357 0 0 1 .3267.2139H7.5212Zm.2332-1.9475a.0445.0445 0 0 1 .0446-.0446h1.7885a.0445.0445 0 0 1 .0446.0446v.08a.0448.0448 0 0 1-.0446.0447H7.799a.0448.0448 0 0 1-.0446-.0446V2.582Zm.6417.6927h.597v.5035h-.597v-.5035Z" clip-rule="evenodd" /></svg>