<svg xmlns="http://www.w3.org/2000/svg" fill="none" viewBox="0 0 16 16"><path fill="#393939" fill-rule="evenodd" d="M7.4977 8.1306V5.122h-.8458c-.9367 0-1.4362-.6073-1.4362-1.1977 0-.613.4598-.9763 1.0672-.9763.6982 0 1.2431.5392 1.2431 1.4418v.7322h.948v-.7322c0-.9026.545-1.4418 1.2431-1.4418.6074 0 1.0615.3633 1.0615.9763 0 .5904-.5108 1.1977-1.4304 1.1977h-.8458v3.0086h4.0019c.6187 0 .9536-.2384.9536-.8458v-1.317c0-.6017-.3349-.8458-.9536-.8458H11.176c.3576-.3178.5676-.7492.5676-1.2374C11.7436 2.789 10.8695 2 9.7739 2c-.8174 0-1.4872.4541-1.7767 1.2602C7.7077 2.4542 7.0435 2 6.2262 2c-1.1013 0-1.9698.789-1.9698 1.8846 0 .4882.2043.9196.5563 1.2374h-1.317c-.5846 0-.9536.2441-.9536.8458v1.317c0 .6074.3406.8458.9537.8458h4.0018Zm0 5.8694V8.738H3.3537v3.8202c0 .9479.5563 1.4418 1.5043 1.4418h2.6395Zm3.6442 0c.948 0 1.5043-.4939 1.5043-1.4418V8.7379H8.5024V14h2.6395Z" clip-rule="evenodd" /></svg>