<svg xmlns="http://www.w3.org/2000/svg" fill="none" viewBox="0 0 16 16"><path fill="#393939" fill-rule="evenodd" d="m9.8646 2.9223.1343.0709 3.413 1.9379c.3681.2147.553.4892.5835.914l.0046.132v3.818c0 .6363-.1972.8988-.5763 1.1364l-.0986.0591-3.789 2.15c-.2404.1349-.466.1518-.6996.0506l-.1006-.0506-2.1363-1.2109a2.7196 2.7196 0 0 0 .3043-.706l1.8513 1.054V8.2766L4.9999 6.1314 4.9998 7.899a2.692 2.692 0 0 0-.7326-.1012V5.9772c0-.4558.1514-.7522.4868-.9798L4.86 4.931l3.4082-1.9379c.5384-.307 1.0604-.3306 1.5963-.0709ZM4.2672 8.2598c1.2452 0 2.2672 1.0265 2.2672 2.2672s-1.0354 2.2672-2.2672 2.2672C3.0265 12.7942 2 11.7767 2 10.527c0-1.2407 1.0265-2.2672 2.2672-2.2672Zm9.0001-2.1284L9.512 8.2766v4.0011l3.3841-1.9234c.2404-.1392.3443-.2784.3665-.4887l.0047-.0946V6.1314ZM4.085 9.3784c-.5256 0-.9566.432-.9566.9565 0 .5256.431.9566.9566.9566a.951.951 0 0 0 .4707-.125l.4403.4415c.0456.0456.1086.0678.1717.0678.1367 0 .2383-.1052.2383-.2395 0-.0619-.021-.1226-.0677-.1693l-.4369-.4369a.9443.9443 0 0 0 .1402-.4952c0-.5244-.431-.9566-.9566-.9566Zm0 .3363c.3422 0 .6202.2791.6202.6202a.6206.6206 0 0 1-.6202.6202.6206.6206 0 0 1-.6202-.6202c0-.341.278-.6202.6202-.6202Zm2.819-5.0729-1.4895.8533L9.136 7.6017l1.4896-.8436-3.7215-2.1162Zm1.81-1.0223-.1227.063-.9256.5255 3.736 2.1114 1.4558-.8243-3.1768-1.8125c-.3342-.1929-.6418-.2105-.9667-.063Z" clip-rule="evenodd" /></svg>