<svg xmlns="http://www.w3.org/2000/svg" fill="none" viewBox="0 0 16 16"><path fill="#393939" fill-rule="evenodd" d="m11.8568 2 .8568 1.1376h.7152c.294 0 .5368.2237.5678.5096L14 3.7094v9.7188a.572.572 0 0 1-.509.5684L13.4288 14H2.5712a.572.572 0 0 1-.5678-.5095L2 13.4282V3.7094c0-.294.2232-.5373.509-.5684l.0622-.0034h.7152L4.1432 2h7.7136Zm1.572 1.7094H2.5712v9.4332h10.8576V3.7094Zm-4.5714 7.7238a.2853.2853 0 0 1 .2813.2393l.0037.0463v.2862H6.8576v-.2862c0-.142.1035-.2597.2388-.2819l.0462-.0037h1.7148Zm3.4284 0c.142 0 .2597.1035.2819.2393l.0037.0463v.2862H10.286v-.2862c0-.142.103-.2597.2391-.2819l.0465-.0037h1.7142Zm-6.8574-.0054a.2851.2851 0 0 1 .2819.2388l.0037.0462v.2862H3.4286v-.2862a.2855.2855 0 0 1 .2393-.2813l.0463-.0037h1.7142Zm3.429-2.2818c.1415 0 .2591.104.2813.2398l.0037.0464v.2856H6.8576v-.2856c0-.142.1035-.2602.2388-.2825l.0462-.0037h1.7148Zm3.4284 0c.142 0 .2597.104.2819.2398l.0037.0464v.2856H10.286v-.2856c0-.142.103-.2602.2391-.2825l.0465-.0037h1.7142Zm-6.8574-.0054a.285.285 0 0 1 .2819.2397l.0037.0465v.285H3.4286v-.285a.2858.2858 0 0 1 .2393-.2825l.0463-.0037h1.7142Zm3.429-2.2812a.2854.2854 0 0 1 .2813.2393l.0037.0463v.2862H6.8576V7.145c0-.142.1035-.2597.2388-.2819l.0462-.0037h1.7148Zm3.4284 0c.142 0 .2597.1035.2819.2393l.0037.0463v.2862H10.286V7.145c0-.142.103-.2597.2391-.2819l.0465-.0037h1.7142ZM5.4284 6.854a.2851.2851 0 0 1 .2819.2393l.0037.0463v.2856H3.4286v-.2856c0-.142.1035-.2597.2393-.2819l.0463-.0037h1.7142Zm3.429-2.2812a.2854.2854 0 0 1 .2813.2393l.0037.0463v.2862H6.8576v-.2862c0-.142.1035-.2597.2388-.2819l.0462-.0037h1.7148Zm3.4284 0c.142 0 .2597.1035.2819.2393l.0037.0463v.2862H10.286v-.2862c0-.142.103-.2597.2391-.2819l.0465-.0037h1.7142Zm-6.8574-.006c.1426 0 .2599.104.2819.2398l.0037.0464v.2856H3.4286V4.853c0-.142.1035-.2602.2393-.2824l.0463-.0038h1.7142Zm6.1434-1.995H4.4282l-.4266.5658h7.9968l-.4266-.5658Z" clip-rule="evenodd" /></svg>