<svg xmlns="http://www.w3.org/2000/svg" fill="none" viewBox="0 0 16 16"><path fill="#393939" fill-rule="evenodd" d="M12.2292 2.25a.25.25 0 1 1 .4981.0455l-1.0286 11.25a.5.5 0 0 1-.4979.4545H4.7992a.5.5 0 0 1-.498-.4545l-1.0285-11.25a.2501.2501 0 0 1 .4981-.0456l1.0109 11.0587a.2.2 0 0 0 .1991.1818h6.0381a.2.2 0 0 0 .1992-.1818l1.0111-11.0587ZM6.9606 9.6665a.3.3 0 0 1 .4178-.0737l1.3662.9566a.3.3 0 0 1 .0737.4178l-.9566 1.3661a.2999.2999 0 0 1-.4178.0737l-1.3662-.9566a.3.3 0 0 1-.0737-.4178l.9566-1.3661Zm.5405.6226a.3.3 0 0 0-.4178.0738l-.383.5469a.3.3 0 0 0 .0738.4178l.5468.3829a.3.3 0 0 0 .4178-.0736l.383-.5469a.3.3 0 0 0-.0736-.4178l-.547-.3831Zm1.2346-3.8073a.3.3 0 0 1 .3475-.2434l1.6424.2896a.3.3 0 0 1 .2434.3476l-.2896 1.6424a.3.3 0 0 1-.3475.2434l-1.6425-.2896a.3.3 0 0 1-.2433-.3476l.2896-1.6424Zm.753.3358a.3.3 0 0 0-.3475.2434l-.1158.6576a.3.3 0 0 0 .2433.3475l.6575.1159a.3.3 0 0 0 .3475-.2433l.116-.6575a.3.3 0 0 0-.2433-.3476l-.6576-.116ZM6.6288 3.37a.3.3 0 0 1 .3987.1451l.7048 1.5116a.3.3 0 0 1-.1451.3986l-1.5115.7049a.3.3 0 0 1-.3987-.1451l-.7048-1.5116a.3.3 0 0 1 .145-.3986l1.5116-.7049Zm.1567.8096a.3.3 0 0 0-.3987-.1451l-.605.2822a.3.3 0 0 0-.1451.3987l.2821.605a.3.3 0 0 0 .3986.1451l.6052-.282a.3.3 0 0 0 .1451-.3988l-.2822-.6052Z" /></svg>