<svg xmlns="http://www.w3.org/2000/svg" fill="none" viewBox="0 0 16 16"><path fill="#393939" fill-rule="evenodd" d="M10.1041 1.9998c.6197 0 1.1268.4507 1.1831 1.0141l.507 3.324c.1127.676-.338 1.2957-1.0141 1.4084a.1777.1777 0 0 1-.1128.0543l.0002.4775c.4535.1015.7887.5035.7887.9893 0 .5634-.4507 1.0141-1.0141 1.0141a1.0098 1.0098 0 0 1-1.014-1.014c0-.5059.3632-.9208.8452-1.0004l-.0002-.4648h-1.296v.676l.282.0004c.1126 0 .169.1127.169.169v.9578c.0172.2253.085.339.169.507.0563.1127.2253.338.3943.5634.2254.338.5071.7324.7324 1.0141.2254.338.2817 1.1267 0 1.6901-.169.2817-.4507.6197-1.0704.6197H8.4703c-.2161 0-.4945.0008-.7887 0H6.3858c-.5634 0-.7887-.3943-.9578-.6197-.2816-.5634-.169-1.2958 0-1.5775.1127-.2253.507-.7323.7888-1.1267.169-.2254.338-.5071.338-.5071s.2253-.3943.2253-.5633v-.9578c0-.1127.1127-.169.169-.169l.338-.0004v-.676l-1.859.0004c-.6761 0-1.2395-.5634-1.2395-1.2395V6.338l.6197-3.324C4.921 2.4505 5.428 2 5.9914 2h4.1127Zm-1.014 6.817H7.1744v.7887c0 .2253-.1127.507-.2817.7887-.0563.0563-.169.2817-.3943.507-.2817.3944-.6761.9014-.7888 1.1268-.1126.169-.2253.7887 0 1.1831.1127.2253.338.338.676.338h3.324c.3381 0 .5634-.169.7324-.3943.2254-.4507.1318-1.0198 0-1.2395-.169-.2817-.4507-.676-.676-1.0141-.169-.2535-.338-.4507-.4507-.6197-.094-.1408-.146-.2642-.1943-.4507 0 0-.031-.1973-.031-.2568v-.7573Zm.7886.4506c0 .338.2254.5634.5634.5634s.5634-.2253.5634-.5634c0-.2555-.1288-.4466-.3377-.5247l-.0003.0177h-.3944l-.0003-.0355c-.2418.063-.394.2647-.394.5425ZM8.583 7.8026h-.9014v.6198h.9014v-.6197Zm1.5211-5.4084H6.0477c-.3943 0-.7323.2817-.845.676l-.6197 3.324v.169c0 .4507.3943.845.845.845h5.2958c.2254-.0563.3944-.169.5634-.338.1127-.169.169-.3943.169-.6197l-.507-3.324c-.0564-.3943-.3944-.7323-.8451-.7323Z" /></svg>