<svg xmlns="http://www.w3.org/2000/svg" fill="none" viewBox="0 0 16 16"><path fill="#393939" fill-rule="evenodd" d="M7.6541 5.113c-.2882 0-.4612-.1729-.4612-.4611 0-.2883.173-.4612.4612-.4612h2.9978c.2882 0 .4612.173.4612.4612s-.173.4612-.4612.4612H7.6541ZM5.0599 4.6519c0 .2882.173.4612.4612.4612h.4035c.2883 0 .4612-.173.4612-.4612 0-.2883-.173-.4612-.4612-.4612h-.4035c-.2883 0-.4612.173-.4612.4612ZM7.6541 6.7849c-.2882 0-.4612-.173-.4612-.4612s.173-.4612.4612-.4612h2.9978c.2882 0 .4612.173.4612.4612s-.173.4612-.4612.4612H7.6541ZM5.0599 6.3237c0 .2882.173.4612.4612.4612h.4035c.2883 0 .4612-.173.4612-.4612s-.173-.4612-.4612-.4612h-.4035c-.2883 0-.4612.173-.4612.4612ZM7.6541 8.4567c-.2882 0-.4612-.173-.4612-.4612s.173-.4612.4612-.4612h2.9978c.2882 0 .4612.173.4612.4612 0 .2883-.173.4612-.4612.4612H7.6541ZM5.0599 7.9955c0 .2883.173.4612.4612.4612h.4035c.2883 0 .4612-.173.4612-.4612s-.173-.4612-.4612-.4612h-.4035c-.2883 0-.4612.173-.4612.4612ZM7.6541 10.0709c-.2882 0-.4612-.173-.4612-.4612s.173-.4612.4612-.4612h2.9978c.2882 0 .4612.173.4612.4612s-.173.4612-.4612.4612H7.6541ZM5.0599 9.6097c0 .2882.173.4612.4612.4612h.4035c.2883 0 .4612-.173.4612-.4612s-.173-.4612-.4612-.4612h-.4035c-.2883 0-.4612.173-.4612.4612ZM7.6541 11.8004c-.2882 0-.4612-.173-.4612-.4612 0-.2883.173-.4612.4612-.4612h2.9978c.2882 0 .4612.1729.4612.4612 0 .2882-.173.4612-.4612.4612H7.6541ZM5.0599 11.3392c0 .2882.173.4612.4612.4612h.4035c.2883 0 .4612-.173.4612-.4612 0-.2883-.173-.4612-.4612-.4612h-.4035c-.2883 0-.4612.1729-.4612.4612Z" /><path fill="#393939" fill-rule="evenodd" d="M3.0998 2.4035v11.184c0 .2306.2306.4612.4036.4035h8.9932c.2306 0 .4036-.1729.4036-.4035V2.4035c0-.2306-.173-.4035-.4036-.4035H3.5034c-.2306 0-.4036.173-.4036.4035Zm8.878.6342v9.9733H4.1952V3.0377h7.7826Z" clip-rule="evenodd" /></svg>