<svg xmlns="http://www.w3.org/2000/svg" fill="none" viewBox="0 0 16 16"><path fill="#393939" fill-rule="evenodd" d="M10.0695 2a.2999.2999 0 0 1 .1337.0314l2.2647 1.1278a.3.3 0 0 1 .1662.2685V13.7a.3.3 0 0 1-.3.3H5.9305a.2999.2999 0 0 1-.1337-.0315L3.532 12.8408a.2999.2999 0 0 1-.1663-.2685V2.3a.3.3 0 0 1 .3-.3h6.4037Zm2.1004 1.915a.3.3 0 0 0-.3-.3h-5.424a.3.3 0 0 0-.3.3v9.323a.3.3 0 0 0 .3.3l5.4248.0004a.3.3 0 0 0 .3-.3l-.0008-9.3234ZM3.9734 2.676a.1.1 0 0 0-.1445.0895l.0004 9.3977a.5.5 0 0 0 .277.4476l1.432.7132a.1.1 0 0 0 .1445-.0895V3.8366a.5.5 0 0 0-.2771-.4476l-1.4323-.713Zm2.778 1.6413a.2.2 0 0 1 .2451-.1303l.9575.2738a.2048.2048 0 0 1-.1123.394l-.4955-.1405 3.9776 7.4808.1606-.4893a.2049.2049 0 0 1 .3894.1273l-.3083.9469a.2.2 0 0 1-.2452.1304l-.9574-.2739a.205.205 0 0 1 .1122-.3942l.4953.1402-3.9772-7.48-.1607.4891a.2049.2049 0 0 1-.3895-.1274l.3083-.9469Zm3.3845-1.8033a.4995.4995 0 0 0-.2228-.0525L4.7914 2.461c-.0528 0-.0696.0712-.0223.0948l1.095.5456a.5.5 0 0 0 .2231.0524l5.1192-.0008c.0528 0 .0695-.0712.0223-.0947l-1.0928-.5443Z" clip-rule="evenodd" /></svg>