<svg xmlns="http://www.w3.org/2000/svg" fill="none" viewBox="0 0 16 16"><path fill="#393939" fill-rule="evenodd" d="m12.7546 8.2957-1.097 1.0965c-.1972.1966-.538.1972-.7351 0L6.1975 4.668a.515.515 0 0 1-.1518-.3673.5153.5153 0 0 1 .1519-.3678l1.097-1.097a.5177.5177 0 0 1 .3679-.1519c.133 0 .266.0506.3678.1518l4.7243 4.7244a.5175.5175 0 0 1 .1531.3678.5175.5175 0 0 1-.1531.3678ZM4.2795 13.225a.4405.4405 0 0 1-.621 0l-.4372-.4373a.4345.4345 0 0 1-.1283-.3102.4354.4354 0 0 1 .1283-.3107l2.1792-2.1792a.2.2 0 0 1 .2828 0l.7755.7759a.2.2 0 0 1 0 .2828l-2.1793 2.1787Zm8.9325-6.1221-4.7244-4.725c-.4567-.4549-1.1965-.4543-1.6503 0l-.3201.3202-.5227-.5232c-.2336-.233-.6127-.233-.8457 0L3.339 3.9846c-.2148.2148-.2278.5632-.0289.7934l3.5765 4.1407a.1.1 0 0 1-.005.136l-.6081.6083-.378-.378a.5.5 0 0 0-.7071 0L2.764 11.7093a1.0756 1.0756 0 0 0-.3184.768c0 .2902.113.5633.3184.7681l.4373.4373c.2118.2113.4896.3172.7674.3172.2784 0 .5568-.1059.7687-.3172l2.424-2.4246a.5.5 0 0 0 .0001-.7069l-.4307-.431.7063-.7057c.2213-.2207.2342-.5786.03-.814L3.8994 4.4705a.1.1 0 0 1 .005-.1361L5.5007 2.738a.1.1 0 0 1 .1414 0l.4178.4172-.3196.3196a1.1597 1.1597 0 0 0-.342.8258c0 .3113.1213.6044.342.8251l4.7249 4.7243a1.16 1.16 0 0 0 .8245.3426c.3126 0 .6057-.1225.8252-.3426l1.0971-1.097a1.1579 1.1579 0 0 0 .3425-.8252c0-.312-.1218-.605-.3425-.8251Z" /></svg>