<svg xmlns="http://www.w3.org/2000/svg" fill="none" viewBox="0 0 16 16"><path fill="#393939" fill-rule="evenodd" d="M11.5126 13.4127c1.1019 0 1.6501-.5536 1.6501-1.6661V3.6714C13.1627 2.5643 12.6145 2 11.5126 2H5.8595c-1.0966 0-1.6502.5642-1.6502 1.6715V9.604c.212-.0607.435-.0933.665-.0933 1.3468 0 2.4523 1.1102 2.4523 2.4522 0 .5398-.1813 1.0422-.4846 1.4498h4.6706Zm-.8038-8.3306c.1863 0 .3247-.149.3247-.3354 0-.181-.1384-.3194-.3247-.3194H6.6686c-.1917 0-.33.1384-.33.3194 0 .1863.1383.3354.33.3354h4.0402Zm.3247 1.5224c0 .1863-.1384.3353-.3247.3353H6.6686c-.1917 0-.33-.149-.33-.3353 0-.181.1383-.3194.33-.3194h4.0402c.1863 0 .3247.1384.3247.3194Zm-2.454 2.193c.1917 0 .33-.1436.33-.3246 0-.1863-.1383-.33-.33-.33h-1.911c-.1916 0-.33.1437-.33.33 0 .181.1384.3247.33.3247h1.911Z" clip-rule="evenodd" /><path fill="#393939" fill-rule="evenodd" d="M4.7106 12.3475a.5576.5576 0 0 1-.5573-.5572.5583.5583 0 0 1 .5573-.5573.5583.5583 0 0 1 .5573.5573.5576.5576 0 0 1-.5573.5572Z" /><path fill="#393939" fill-rule="evenodd" d="M4.8743 14c1.1068 0 2.0371-.9223 2.0371-2.0371 0-1.1148-.9183-2.037-2.037-2.037-1.1149 0-2.0372.9222-2.0372 2.037 0 1.1228.9223 2.0371 2.0371 2.0371Zm.8091-1.005c.1228 0 .2141-.0944.2141-.2151 0-.0556-.0189-.1102-.0608-.1522l-.3925-.3925a.8484.8484 0 0 0 .1259-.4449c0-.4712-.3872-.8595-.8595-.8595-.4723 0-.8595.3883-.8595.8595 0 .4722.3872.8595.8595.8595.1532 0 .297-.041.423-.1123l.3956.3967c.0409.0409.0976.0608.1542.0608Z" clip-rule="evenodd" /></svg>