<svg xmlns="http://www.w3.org/2000/svg" fill="none" viewBox="0 0 16 16"><path fill="#393939" fill-rule="evenodd" d="M3.3795 3.0205c.281 0 .5109-.2299.5109-.5058a.5091.5091 0 0 0-.511-.5109h-.8736c-.281 0-.5057.2248-.5057.511 0 .2758.2247.5057.5057.5057h.8737ZM11.8807 2.9234c.2299 0 .4138-.1788.4138-.4087 0-.235-.1839-.4138-.4138-.4138H5.4128c-.235 0-.4138.1788-.4138.4138 0 .23.1788.4087.4138.4087h6.4679ZM3.3795 5.1793c.281 0 .5109-.2299.5109-.5109s-.23-.5058-.511-.5058h-.8736a.5037.5037 0 0 0-.5057.5058c0 .281.2247.511.5057.511h.8737ZM11.8807 5.0822a.412.412 0 0 0 .4138-.4138c0-.2299-.1839-.4087-.4138-.4087h-6.468c-.235 0-.4137.1788-.4137.4087 0 .23.1788.4138.4138.4138h6.4679ZM3.3795 7.3381c.281 0 .5109-.2299.5109-.5058a.5091.5091 0 0 0-.511-.5109h-.8736c-.281 0-.5057.2248-.5057.511 0 .2758.2247.5057.5057.5057h.8737ZM10.3417 10.6974c0 .1344.1041.2352.2351.2352h1.7535c.1344 0 .2352-.1008.2352-.2352 0-.131-.1008-.2317-.2352-.2317h-1.5217V8.4333c0-.131-.1008-.2317-.2318-.2317s-.2351.1007-.2351.2317v2.2641Z" /><path fill="#393939" fill-rule="evenodd" d="M11.8807 7.241c.2299 0 .4138-.1788.4138-.4087 0-.235-.1839-.4138-.4138-.4138h-6.468c-.235 0-.4137.1788-.4137.4138 0 .23.1788.4087.4138.4087h4.359c-.8022.1977-1.4994.6827-1.9733 1.3363h-2.549c-.1423 0-.2505.1788-.2505.4138 0 .23.1082.4087.2504.4087h2.1082a3.3552 3.3552 0 0 0-.2105 1.17c0 1.8744 1.552 3.4264 3.4264 3.4264 1.8711 0 3.4264-1.552 3.4264-3.4264 0-1.595-1.1277-2.9605-2.6194-3.3288h.5002Zm1.5448 3.3288c0 1.5855-1.2664 2.8553-2.852 2.8553-1.5855 0-2.8586-1.2698-2.8553-2.8553.0034-1.5822 1.2732-2.8553 2.8587-2.8553 1.5855 0 2.8486 1.2731 2.8486 2.8553Z" clip-rule="evenodd" /><path fill="#393939" fill-rule="evenodd" d="M3.3795 9.497c.281 0 .5109-.23.5109-.5059a.5091.5091 0 0 0-.511-.5109h-.8736c-.281 0-.5057.2248-.5057.511 0 .2758.2247.5057.5057.5057h.8737Z" /></svg>