<svg xmlns="http://www.w3.org/2000/svg" fill="none" viewBox="0 0 16 16"><path fill="#393939" fill-rule="evenodd" d="M10.2162 3.8108h-7.946c-.162 0-.2702.1081-.2702.2703v4.3784c0 .1621.1081.2702.2703.2702H6v1.4054H2.3243c-.054 0-.1621.0541-.1621.1622v1.7297c0 .0541.054.1622.1621.1622h7.7838c.0541 0 .1622-.0541.1622-.1622v-1.7297c0-.0541-.0541-.1622-.1622-.1622H6.4324V8.7297h3.7298c.1621 0 .2702-.108.2702-.2702V4.081c0-.1806-.054-.2703-.2162-.2703ZM2.4324 6.8243c0 .2762.2236.5.4997.5h6.6232a.499.499 0 0 0 .4988-.5V4.6892a.5.5 0 0 0-.5-.5H2.9324a.5.5 0 0 0-.5.5v2.1351ZM6.0541 8.027c0 .1081.108.2162.2162.2162.108 0 .2162-.108.2162-.2162 0-.108-.1081-.2162-.2162-.2162s-.2162.1081-.2162.2162Zm.108 3.2973H3.2974c-.054 0-.1622-.054-.1622-.1621 0-.0541.054-.1622.1622-.1622h2.8649c.054 0 .1621.0541.1621.1622s-.108.1621-.1621.1621Zm3.2433-.1621c0-.1622-.1081-.2703-.2703-.2703-.1621 0-.2702.1081-.2702.2703 0 .1621.108.2702.2702.2702s.2703-.1081.2703-.2702Z" clip-rule="evenodd" /><path fill="#393939" fill-rule="evenodd" d="M12.3243 9.4865h-.2162c-.054 0-.1081-.054-.1081-.1081 0-.054.0541-.1081.1081-.1081h.2162c.0541 0 .1081.054.1081.108 0 .0541-.054.1082-.1081.1082ZM12.7568 9.1081h-.6487C12.0541 9.1081 12 9.0541 12 9c0-.054.0541-.1081.1081-.1081h.6487c.054 0 .1081.054.1081.1081 0 .054-.0541.1081-.1081.1081Z" /><path fill="#393939" fill-rule="evenodd" d="M13.3514 10.1892h.4864c.0541 0 .1622.0471.1622.1621v1.6757c0 .1081-.1081.1622-.1622.1622H11.027c-.1081 0-.1621-.1081-.1621-.1622v-1.6757c0-.1081.1081-.1621.1621-.1621h.4865V8.6216c0-.108.1081-.2162.2162-.2162h1.4054c.1081 0 .2163.1081.2163.2162v1.5676Zm-1.3676.4324a.2.2 0 0 1-.2-.2v-1.546a.2.2 0 0 1 .2-.2h.8432a.2.2 0 0 1 .2.2v1.546a.2.2 0 0 1-.2.2h-.8432Zm.773.8108h-.7027c-.0541 0-.1622-.054-.1622-.1621 0-.0541.054-.1622.1622-.1622h.7027c.054 0 .1621.0541.1621.1622s-.054.1621-.1621.1621Z" clip-rule="evenodd" /></svg>