<svg xmlns="http://www.w3.org/2000/svg" fill="none" viewBox="0 0 16 16"><path fill="#393939" fill-rule="evenodd" d="m7.5103 3.0014.1322.0697 3.3599 1.9077c.3624.2114.5444.4817.5745.8999l.0045.13v1.3427a2.861 2.861 0 0 0-.7217.0923l.0003-1.2832-3.6968 2.1118v3.9388l1.682-.9564c.0871.2382.2047.462.3479.6668l-2.0062 1.1391c-.2367.1329-.4588.1495-.6887.0498l-.099-.0498-3.7348-2.1166c-.3986-.2321-.6275-.4602-.6603-1.0277L2 9.767V6.0086c0-.4486.149-.7404.4792-.9645l.1045-.0653 3.3551-1.9077c.53-.3022 1.044-.3255 1.5715-.0697Zm4.0711 4.8429c1.3283 0 2.4186 1.095 2.4186 2.4186s-1.1046 2.4187-2.4186 2.4187c-1.3236 0-2.4187-1.0856-2.4187-2.4187 0-1.3236 1.0951-2.4186 2.4187-2.4186Zm-8.86-1.6838v3.583c0 .2283.0726.3767.2752.5152l.0949.0589 3.3266 1.8935V8.2723L2.7213 6.1605Zm8.7306 2.9392c-.0634 0-.1014.0317-.1724.0913l-1.0003.9356c-.0469.0469-.0647.0939-.0647.137 0 .0418.0178.0887.0647.1356l1.0003.9446c.0634.0545.1116.0824.175.0824.0849 0 .1483-.0634.1483-.1484v-.4843h.0368c.4906 0 .8012.1243 1.0219.5389.0443.0811.1026.0938.1559.0938.0685 0 .1306-.0609.1306-.1699 0-.937-.3968-1.5214-1.3084-1.5214h-.0368v-.4793c0-.085-.0634-.156-.1509-.156Zm-5.0744-5.412-.1208.062-3.1274 1.7844 3.6637 2.0738 3.6635-2.0738-3.1273-1.7844c-.329-.1898-.6318-.2071-.9517-.062Z" clip-rule="evenodd" /></svg>