<svg xmlns="http://www.w3.org/2000/svg" fill="none" viewBox="0 0 16 16"><path fill="#393939" fill-rule="evenodd" d="M6.7755 7.1429c1.3695 0 2.5202 1.0929 2.8463 2.572l2.6639-.0006c.9468 0 1.7143.7675 1.7143 1.7143v.8571a.8572.8572 0 0 1-.8571.8572H5.4286A.8572.8572 0 0 1 4.5714 14H2.4286a.4286.4286 0 0 1 0-.8571h2.1428V8H2.4286a.4286.4286 0 0 1 0-.8571h4.347ZM7.143 8H5.4286v4.2857h7.7143v-.8571a.8573.8573 0 0 0-.7572-.8514l-.1-.0043-3.8571-.0015a.4285.4285 0 1 1 0-.8571h.4285l-.0457-.1304C8.5246 8.7798 7.8971 8.1482 7.143 8Zm-3.8572 3.4286a.4285.4285 0 1 1 .0002.857.4285.4285 0 0 1-.0002-.857ZM13.143 2A.8572.8572 0 0 1 14 2.8571v5.5715a.4286.4286 0 0 1-.8571 0V2.857h-1.7143v1.7143a.8572.8572 0 0 1-.8572.8572H8.8571A.8571.8571 0 0 1 8 4.5714V2.8571H6.2857v3a.4286.4286 0 1 1-.8571 0v-3A.8571.8571 0 0 1 6.2857 2h6.8572Zm-2.5715.8571H8.8571v1.7143h1.7143V2.8571Z" /></svg>