<svg xmlns="http://www.w3.org/2000/svg" fill="none" viewBox="0 0 16 16"><path fill="#393939" fill-rule="evenodd" d="m13.5464 6.008-3.3015-.888V2.6c0-.3314-.2683-.6-.5992-.6H2.5992A.5996.5996 0 0 0 2 2.6v7.08c0 .3314.2683.6.5992.6h1.8814l-.3115 1.2a.6.6 0 0 0 .4194.72l6.8248 1.8h.1737a.5993.5993 0 0 0 .5693-.438l1.8275-6.834a.6.6 0 0 0-.4374-.72ZM2.5 9.0898V3.05a.5.5 0 0 1 .5-.5h6.25a.5.5 0 0 1 .5.5v6.1a.5.5 0 0 1-.5.5H3a.5.5 0 0 1-.5-.5v-.0602Zm9.2215 3.8631a.5.5 0 0 1-.6133.3501l-5.9047-1.6053a.5.5 0 0 1-.3486-.6232l.247-.8422h4.774c.3912 0 .5226-.252.5226-.6443V5.773l2.5822.707a.5.5 0 0 1 .3501.6147l-1.6093 5.8582Z" /></svg>