<svg xmlns="http://www.w3.org/2000/svg" fill="none" viewBox="0 0 16 16"><path fill="#393939" fill-rule="evenodd" d="m11.1241 5.91 2.0735-1.1802c-.0827-.0827-.182-.149-.3033-.215l-3.8934-2.217C8.6645 2.1048 8.3281 2 8.0028 2c-.331 0-.6673.1048-1.0037.2978l-1.1195.6342 5.2445 2.978ZM8.0028 7.6801l2.3547-1.3346L5.1351 3.362 3.1112 4.5147c-.1213.0662-.2206.1324-.3088.215l5.2004 2.9505Zm.4853 6.2702c-.0386.022-.0717.0386-.1103.0496V8.342l2.3549-1.3458-.0531.0305v.994c0 .3719.3959.6099.7243.4355a.3825.3825 0 0 0 .2031-.3379V6.4966l1.9436-1.1106c.033.1213.0441.2537.0441.4192v4.2959c0 .7996-.2758 1.0974-.7886 1.3897l-4.318 2.4596ZM7.6223 14V8.342L2.4493 5.386c-.033.1213-.044.2537-.044.4192v4.2959c0 .7996.2812 1.0974.7885 1.3897l4.3236 2.4596A.3664.3664 0 0 0 7.6223 14Z" clip-rule="evenodd" /></svg>