<svg xmlns="http://www.w3.org/2000/svg" fill="none" viewBox="0 0 16 16"><path fill="#393939" fill-rule="evenodd" d="M12.3673 2c.2453 0 .4634.1462.5609.3702l.0235.063 1.0188 3.2298a.634.634 0 0 1-.0978.5724c-.076.1-.1803.1617-.2953.1968l-.0701.018V14H2.4927V6.4502c-.1428-.03-.2742-.0948-.3654-.2148a.6335.6335 0 0 1-.1148-.5066l.017-.0658 1.0182-3.2292c.0753-.2382.2792-.4042.5188-.4302L3.6327 2h8.7346Zm.5274 10.0326H3.7161v1.3134h9.1786v-1.3134Zm-.6114-2.3886H3.1047v1.3134h9.1786V9.644Zm.6114-2.3886H3.7161v1.3134h9.1786V7.2554ZM3.6327 2.597l-.9378 2.9862H13.284l-.9168-2.9742-8.7346-.012Z" clip-rule="evenodd" /></svg>