<svg xmlns="http://www.w3.org/2000/svg" fill="none" viewBox="0 0 16 16"><path fill="#393939" fill-rule="evenodd" d="M6.4682 2.7614c-.1622 0-.3244-.1667-.3244-.2748v-.1622c0-.1622.1622-.3244.3244-.3244s.3244.1622.3244.3244v.1622c0 .0956-.1146.2748-.3244.2748ZM6.0537 4.5385c.054.1622.1622.2703.3243.2703.1082 0 .2704-.1622.3244-.2703V3.403c0-.1622-.1621-.3244-.3243-.3244-.1622 0-.3244.1622-.3244.3244v1.1354ZM5.3508 4.16c-.1622 0-.2704-.1081-.3244-.2703v-.2163c0-.1622.1622-.3244.3244-.3244s.3244.1622.3244.3244v.2163c0 .1081-.1622.2703-.3244.2703ZM8.0919 6.7552c-.1105 0-.2.0893-.2.1997v.4701c0 .1105.0895.1952.2.1952h.465a.2.2 0 0 0 .2-.2v-.465a.2.2 0 0 0-.2-.2h-.465Z" /><path fill="#393939" fill-rule="evenodd" d="M8.2703 14c-.5406 0-.9732-.3785-1.0272-.8651l-.1081-1.2435H5.7292v.811c0 .1622-.1621.3244-.3243.3244-.1622 0-.3244-.1622-.3244-.3244V5.0251c0-.1622.1622-.3244.3243-.3244.1623 0 .3244.1622.3244.3244v.6488h3.4603c.3243 0 .5947.2703.5947.5947v1.622l.811 1.0272c.2162.2703.3784.6488.3784 1.0813l-.3244 3.3521c-.054.3785-.3784.6488-.7569.6488h-1.622Zm-.5407-3.8387c-.1622 0-.3244.1082-.3244.3244l.1622.5407.2163 2.0545c0 .2162.2163.4325.4325.4325h1.622c.054 0 .1081-.0541.1622-.1622l.2703-3.352c0-.2163-.054-.4867-.2162-.703l-.3785-.4865v2.4329c0 .3785-.2703.5948-.5947.5948H8.919l-.054.054c-.0541.0541-.1082.1082-.2164.1622h-.054c-.1082 0-.2703-.1081-.2703-.2162l-.2704-1.2435c0-.1622-.1404-.4326-.3244-.4326Zm1.3538.9569a.1805.1805 0 0 1-.357.0358l-.1316-.6142c-.0807-.4968-.3785-1.0273-.9191-1.0273-.4792 0-.8534.367-.8648.8944a.1843.1843 0 0 0 .0057.0486l.2103.8412h-.0703a.2.2 0 0 1-.2-.2V6.4686a.2.2 0 0 1 .2-.2H8.981c.1545 0 .1545.1557.1545.2098l-.0521 4.6398ZM5.8099 6.2686a.0815.0815 0 0 0-.0815.0806l-.0525 4.828c-.0005.0425.0113.0857.0436.1134.0156.0135.034.0257.0526.0301a.0606.0606 0 0 0 .0283-.0017.1194.1194 0 0 0 .091-.116V6.3501a.0815.0815 0 0 0-.0815-.0815Z" clip-rule="evenodd" /><path fill="#393939" fill-rule="evenodd" d="M6.9187 5.2413c.054.1622.1622.2704.3244.2704s.3244-.1622.3244-.3244v-.5948c0-.1622-.1622-.3243-.3244-.3243s-.3244.1621-.3244.3243v.6488Z" /></svg>