<svg xmlns="http://www.w3.org/2000/svg" fill="none" viewBox="0 0 16 16"><path fill="#393939" fill-rule="evenodd" d="M15.3933 7.8873c0 3.2194-2.668 5.8874-5.8874 5.8874-.9723 0-1.8913-.2431-2.7154-.67.1956-.2786.338-.5751.4447-.8893.6758.3498 1.4466.5573 2.2648.5573 1.3933 0 2.6442-.581 3.5336-1.5-.7826-.8419-2.0692-1.3873-3.5277-1.3873-.7648 0-1.494.1541-2.1225.4209-.3202-1.7668-1.8676-3.1185-3.7115-3.1482C4.0276 4.2826 6.5355 2 9.5 2c3.2194 0 5.8934 2.674 5.8934 5.8873ZM7.5079 6.666c0 1.2332.8597 2.2233 1.992 2.2233 1.1384 0 1.9981-.99 1.9981-2.2233.0059-1.168-.8775-2.1818-1.998-2.1818-1.1146 0-1.9921 1.0138-1.9921 2.1818Zm-.8775 4.3221C6.6304 12.6364 5.2549 14 3.6186 14c-1.6483 0-3.012-1.3518-3.012-3.0119 0-1.6482 1.3637-3.0118 3.012-3.0118 1.6541 0 3.0118 1.3636 3.0118 3.0118Zm-1.337.6752.5031-.7109c.078-.1136.0487-.2499-.0974-.2499h-.3148c-.1526-.8731-.8602-1.4769-1.7593-1.4769-.3927 0-.7887.1396-1.0614.3668-.1493.1169-.1882.2792-.0746.396.1103.1169.25.1006.3733.0065.2272-.1818.4576-.2726.7627-.2726.6297 0 1.1523.4252 1.2919.9802H4.563c-.146 0-.1818.1396-.1006.2499l.5128.7109c.0812.1168.2272.1266.3181 0Zm-1.6619 1.0873c.3928 0 .7855-.1363 1.0614-.3635.1493-.1168.1883-.2824.0747-.3992-.1071-.1169-.25-.0974-.3765-.0065-.2272.1785-.4545.2759-.7596.2759-.6264 0-1.1522-.4252-1.2918-.9835h.3375c.1429 0 .1786-.1363.0974-.25l-.5096-.7076c-.0844-.1168-.2304-.1265-.3213 0l-.5031.7076c-.078.1137-.0487.25.0973.25h.3344c.1525.8731.8601 1.4768 1.7592 1.4768Z" clip-rule="evenodd" /></svg>