<svg xmlns="http://www.w3.org/2000/svg" fill="none" viewBox="0 0 16 16"><path fill="#393939" fill-rule="evenodd" d="M5.3962 7.5472v-.3396c-.4528-.0567-.7358-.3397-.9056-.6227v-.1132l.566-.2264v.1132c.0566.1698.3396.3396.566.3396.1132 0 .5095 0 .5095-.283 0-.1132-.1698-.1698-.5095-.283l-.04-.005c-.4486-.0555-1.0354-.128-1.0354-.7875 0-.3962.3396-.7358.7924-.7924v-.3396h.6793v.3396c.2264.0566.566.1698.7358.5094v.1132l-.566.283v-.0566c-.0566-.1132-.3396-.2264-.5095-.2264-.1132 0-.4528 0-.4528.2264 0 .1132.1698.1698.5095.1698.4528.0566 1.132.1699 1.132.849 0 .5095-.3962.7926-.7924.8491v.3963c0-.1132-.6793-.1132-.6793-.1132Z" /><path fill="#393939" fill-rule="evenodd" d="M2 5.934c0 2.0377 1.6981 3.6792 3.6792 3.6792 1.9812 0 3.6227-1.6415 3.6793-3.6792 0-2.0378-1.6415-3.6793-3.6792-3.6793C3.6414 2.2547 2 3.8962 2 5.934Zm.7925 0c0-1.585 1.2452-2.8868 2.8867-2.8868 1.585 0 2.8868 1.3019 2.8868 2.8868S7.2641 8.8208 5.6792 8.8208 2.7925 7.5755 2.7925 5.934Z" clip-rule="evenodd" /><path fill="#393939" fill-rule="evenodd" d="M12.7547 11.4245h.7925c.2264 0 .4528-.2264.4528-.4528s-.2264-.4528-.4528-.4528h-.7925c-.2264 0-.4528.2264-.4528.4528s.2264.4528.4528.4528ZM13.5472 9.5H9.7547c-.2264 0-.4528-.2264-.4528-.4528s.2264-.4529.4528-.4529h3.7925c.2264 0 .4528.2264.4528.4529 0 .283-.2264.4528-.4528.4528ZM3.868 13.7453h9.6792c.2264 0 .4528-.2264.4528-.4528 0-.2265-.2264-.4529-.4528-.4529H3.8679c-.2264 0-.4528.2264-.4528.4529 0 .2264.2264.4528.4528.4528ZM13.5472 7.5755h-2.151c-.2264 0-.4528-.2264-.4528-.4529 0-.2264.2264-.4528.4528-.4528h2.151c.2264 0 .4528.2264.4528.4528 0 .2265-.2264.4529-.4528.4529ZM6.3585 11.4245h4.8113c.2264 0 .4528-.2264.4528-.4528s-.2264-.4528-.4528-.4528H6.3585c-.2264 0-.4528.2264-.4528.4528s.2264.4528.4528.4528Z" /></svg>