<svg xmlns="http://www.w3.org/2000/svg" fill="none" viewBox="0 0 16 16"><path fill="#393939" fill-rule="evenodd" d="M9.9512 14c.6654 0 1.2404-.0426 1.6184-.1331.74-.181 1.1979-.6921 1.1979-1.3469 0-.1331-.0213-.2609-.0639-.3834.3673-.2661.575-.6761.575-1.118 0-.2182-.0373-.4312-.1225-.6069.2502-.2502.394-.6176.394-1.0062 0-.2502-.0639-.5164-.1757-.708.1544-.2183.2449-.5112.2449-.836 0-.7932-.6229-1.4214-1.4108-1.4214h-2.0178c-.1277 0-.213-.0586-.213-.165 0-.5803.9105-1.9273.9105-3.008C10.8882 2.5324 10.3717 2 9.6637 2c-.5218 0-.8678.2715-1.2139.9317-.6495 1.2458-1.4215 2.3478-2.6832 3.8917H4.7497c-1.3096 0-2.369 1.4854-2.369 3.3008 0 1.7942 1.1605 3.2849 2.5713 3.2849h1.7622c.6975.3673 1.5493.5909 2.5023.5909h.7347Zm.0053-.8039-.7347-.0107c-2.2307-.0159-3.748-1.2777-3.748-3.0878 0-1.15.2609-1.8847.9849-2.8536.7986-1.07 1.906-2.3531 2.7098-3.945.2077-.4259.3248-.4951.4952-.4951.2608 0 .4206.165.4206.4632 0 .8624-.9104 2.1721-.9104 3.008 0 .6016.5004.969 1.134.969h1.9006c.346 0 .6069.2661.6069.6175 0 .2555-.0799.4206-.2928.6229-.0533.0532-.0799.1064-.0799.165 0 .0426.016.0905.0533.1331.1757.2555.2502.4153.2502.6229 0 .2555-.1171.4685-.362.6548-.1012.0746-.1544.1598-.1544.2503 0 .0319.0106.0692.0266.1064.1544.2928.2183.41.2183.6016 0 .2875-.181.5058-.5644.7028-.0798.0426-.1277.1065-.1277.1863 0 .032.0106.0639.0266.1012.1331.3247.1544.378.1544.5111 0 .2608-.1917.4685-.5856.5643-.3142.0799-.8146.1171-1.4215.1118Zm-4.2804-.591h-.724c-.9424 0-1.7676-1.1339-1.7676-2.4809 0-1.3735.7454-2.4969 1.5652-2.4969h.4952c-.3993.7454-.575 1.528-.575 2.4543 0 1.0009.362 1.8634 1.0062 2.5235Z" clip-rule="evenodd" /></svg>