<svg xmlns="http://www.w3.org/2000/svg" fill="none" viewBox="0 0 16 16"><path fill="#393939" fill-rule="evenodd" d="M6.3362 14c.5218 0 .8678-.2715 1.2139-.9317.6495-1.2458 1.4161-2.3478 2.6832-3.8917h1.0169c1.3097 0 2.3691-1.4854 2.3691-3.3062 0-1.7888-1.1606-3.2795-2.5714-3.2795H9.2857C8.5829 2.2236 7.731 2 6.7834 2h-.7346c-.6655 0-1.2405.0373-1.6185.1331-.74.181-1.1979.6921-1.1979 1.3416 0 .1384.0213.2609.0586.3833-.362.2715-.575.6762-.575 1.1234 0 .213.0426.4259.1225.6069-.245.2502-.3887.6176-.3887 1.0009 0 .2555.064.5164.1757.7134-.1544.213-.2449.511-.2449.8305 0 .7986.623 1.4268 1.4108 1.4268h2.0178c.1278 0 .2076.0532.2076.165 0 .5803-.905 1.9273-.905 3.008 0 .7347.511 1.2671 1.2245 1.2671Zm0-.8039c-.2661 0-.4205-.165-.4205-.4632 0-.8678.905-2.1721.905-3.008 0-.6016-.4951-.969-1.1286-.969H3.7914c-.346 0-.6069-.2661-.6069-.6228 0-.2502.0799-.4153.2928-.6176.0533-.0532.0799-.1065.0799-.165 0-.048-.0213-.0905-.0532-.1384-.1757-.2503-.2503-.4153-.2503-.623 0-.2502.1172-.4684.362-.6494.1012-.0746.1544-.1597.1544-.2503 0-.0319-.0106-.0692-.0319-.1064-.149-.2929-.2183-.41-.2183-.6016 0-.2875.1864-.5058.5697-.7028.0745-.0426.1224-.1065.1224-.1863 0-.032-.0106-.064-.0266-.1012-.133-.3247-.149-.378-.149-.5164 0-.2609.1916-.4632.5802-.559.3195-.0852.8146-.1171 1.4268-.1118l.7347.0053c2.2307.0213 3.748 1.283 3.748 3.0932 0 1.15-.2608 1.8846-.9849 2.8536-.7986 1.07-1.9112 2.3531-2.7098 3.945-.213.4206-.3248.4951-.4952.4951Zm4.914-4.8234h-.4951c.3993-.7507.5749-1.528.5749-2.4543 0-1.001-.362-1.8687-1.0062-2.5236h.7241c.937 0 1.7675 1.1287 1.7675 2.4756 0 1.379-.7453 2.5023-1.5652 2.5023Z" clip-rule="evenodd" /></svg>