<svg xmlns="http://www.w3.org/2000/svg" fill="none" viewBox="0 0 16 16"><path fill="#393939" fill-rule="evenodd" d="M14 7.9086c0 2.6127-2.1652 4.7778-4.7779 4.7778-.789 0-1.5348-.1972-2.2037-.5437.1588-.2261.2743-.4667.361-.7217.5484.2839 1.174.4523 1.838.4523 1.1306 0 2.1459-.4715 2.8676-1.2173-.6351-.6833-1.6792-1.126-2.8629-1.126-.6207 0-1.2125.1252-1.7225.3417-.2598-1.4339-1.5156-2.5309-3.012-2.555.2887-2.3335 2.324-4.186 4.7297-4.186C11.83 3.1307 14 5.3007 14 7.9086Zm-6.3994-.9912c0 1.0008.6977 1.8043 1.6167 1.8043.9238 0 1.6215-.8035 1.6215-1.8043.0048-.9479-.7121-1.7706-1.6215-1.7706-.9045 0-1.6166.8227-1.6166 1.7706Z" clip-rule="evenodd" /><path fill="#393939" fill-rule="evenodd" d="M4.2465 11.0142c-.4613 0-.8429-.3816-.8429-.8429 0-.4612.3816-.8428.8429-.8428.4612 0 .8428.3816.8428.8428 0 .4613-.3816.8429-.8428.8429Z" /><path fill="#393939" fill-rule="evenodd" d="M6.8885 10.425c0 1.3376-1.1162 2.4443-2.4442 2.4443C3.1067 12.8693 2 11.7723 2 10.425c0-1.3376 1.1067-2.4443 2.4443-2.4443 1.3424 0 2.4442 1.1067 2.4442 2.4443Zm-1.085 1.1692a.1539.1539 0 0 0-.0447-.1118l-.6583-.6597a1.0708 1.0708 0 0 0 .2208-.6514c0-.5912-.4836-1.0748-1.0748-1.0748-.5913 0-1.0749.4836-1.0749 1.0748 0 .5913.4836 1.0749 1.0749 1.0749.2334 0 .4486-.0755.6247-.2013l.6626.6625a.1592.1592 0 0 0 .1146.0462c.0908 0 .1551-.0699.1551-.1594Z" clip-rule="evenodd" /></svg>