<svg xmlns="http://www.w3.org/2000/svg" fill="none" viewBox="0 0 16 16"><path fill="#393939" fill-rule="evenodd" d="M15.3933 7.8873c0 3.2194-2.668 5.8874-5.8874 5.8874-.9723 0-1.8913-.2431-2.7154-.67.1956-.2786.338-.5751.4447-.8893.6758.3498 1.4466.5573 2.2648.5573 1.3933 0 2.6442-.581 3.5336-1.5-.7826-.8419-2.0692-1.3873-3.5277-1.3873-.7648 0-1.494.1541-2.1225.4209-.3202-1.7668-1.8676-3.1185-3.7115-3.1482C4.0276 4.2826 6.5355 2 9.5 2c3.2194 0 5.8934 2.674 5.8934 5.8873ZM7.5079 6.666c0 1.2332.8597 2.2233 1.992 2.2233 1.1384 0 1.9981-.99 1.9981-2.2233.0059-1.168-.8775-2.1818-1.998-2.1818-1.1146 0-1.9921 1.0138-1.9921 2.1818Zm-.8775 4.3221C6.6304 12.6364 5.2549 14 3.6186 14c-1.6483 0-3.012-1.3518-3.012-3.0119 0-1.6482 1.3637-3.0118 3.012-3.0118 1.6541 0 3.0118 1.3636 3.0118 3.0118Zm-1.5615.1913a1.5228 1.5228 0 0 0 .0137-.1913c0-.0663-.0059-.1288-.0137-.1912l.4117-.322a.0984.0984 0 0 0 .0235-.1249l-.3903-.6752c-.0234-.043-.0761-.0585-.119-.043l-.486.1952a1.4257 1.4257 0 0 0-.3298-.1912l-.0741-.5171a.0952.0952 0 0 0-.0956-.082h-.7806a.0952.0952 0 0 0-.0956.082l-.0742.517c-.119.0489-.2283.1152-.3298.1913l-.4859-.1951a.0952.0952 0 0 0-.119.043l-.3903.6751a.0962.0962 0 0 0 .0234.1249l.4118.322a1.5454 1.5454 0 0 0-.0137.1912c0 .0644.0058.1288.0137.1913l-.4118.322c-.037.0292-.0468.0819-.0234.1249l.3903.6752c.0234.0429.076.0585.119.0429l.486-.1952a1.425 1.425 0 0 0 .3297.1913l.0742.5171a.0951.0951 0 0 0 .0956.082h.7806a.0951.0951 0 0 0 .0956-.082l.0741-.5171c.119-.0488.2284-.1151.3298-.1913l.486.1952a.0952.0952 0 0 0 .119-.0429l.3903-.6752c.0234-.043.0136-.0957-.0235-.1249l-.4117-.322Zm-1.45.4917a.6837.6837 0 0 1-.683-.683c0-.3766.3064-.683.683-.683.3767 0 .683.3064.683.683a.6837.6837 0 0 1-.683.683Z" clip-rule="evenodd" /></svg>