<svg xmlns="http://www.w3.org/2000/svg" fill="none" viewBox="0 0 16 16"><path fill="#393939" fill-rule="evenodd" d="M12.206 7.7c.1932 0 .3741.0787.4962.2138l.043.0532.4625.6414c.0811.1128.0889.2508.0208.3696-.0727.1254-.2245.1986-.3977.2118a.4618.4618 0 0 1 .0306.1038l.0044.0552v4.2024c0 .2295-.1874.4198-.4287.4458l-.0565.003h-8.761c-.2488 0-.454-.1738-.482-.3966l-.0033-.0522V9.3488c0-.0564.0143-.1092.035-.159-.1731-.0132-.325-.0864-.3976-.2118-.0584-.1018-.061-.2178-.0095-.3198l.0302-.0498.4626-.6414c.1067-.1488.278-.244.4674-.2633L3.794 7.7h8.4119Zm.0111 1.8H8.6488v3.9h3.5683V9.5Zm-4.8658 0H3.7831v3.9h3.5682V9.5Zm-.9731 1.35c.2686 0 .4865.2016.4865.45s-.218.45-.4865.45c-.2686 0-.4866-.2016-.4866-.45s.218-.45.4866-.45Zm3.2438 0c.2686 0 .4866.2016.4866.45s-.218.45-.4866.45c-.2686 0-.4866-.2016-.4866-.45s.218-.45.4866-.45Zm2.5834-2.5506L3.7941 8.3l-.216.3h8.8433l-.216-.3006ZM8.0001 2c1.4331 0 2.595 1.2084 2.595 2.7 0 1.491-1.1619 2.7-2.595 2.7-1.4331 0-2.595-1.209-2.595-2.7C5.405 3.2084 6.567 2 8 2Zm0 .6c-1.073 0-1.9463.942-1.9463 2.1 0 1.158.8732 2.1 1.9463 2.1 1.073 0 1.9463-.942 1.9463-2.1 0-1.158-.8733-2.1-1.9463-2.1Z" clip-rule="evenodd" /></svg>